<svg xmlns="http://www.w3.org/2000/svg" xmlns:xlink="http://www.w3.org/1999/xlink" width="500" zoomAndPan="magnify" viewBox="0 0 375 374.999991" height="500" preserveAspectRatio="xMidYMid meet" version="1.0"><rect x="-37.5" width="450" fill="#ffffff" y="-37.499999" height="449.999989" fill-opacity="1"/><rect x="-37.5" width="450" fill="#1a4999" y="-37.499999" height="449.999989" fill-opacity="1"/><path stroke-linecap="butt" transform="matrix(9.374999, 0, 0, 9.374999, 108.691404, -97.932349)" fill="none" stroke-linejoin="miter" d="M 0.37375 40.99987 L 0.37375 32.633619 C 2.390834 33.605703 4.201251 34.286119 5.805417 34.674869 C 7.409584 35.057786 8.810001 35.249036 10.007084 35.249036 C 11.695834 35.249036 12.968751 34.945286 13.825418 34.337786 C 14.688335 33.730286 15.119585 33.089453 15.119585 32.414869 C 15.119585 31.892369 14.907085 31.512369 14.481668 31.275703 C 14.062501 31.038619 13.497501 30.877786 12.786668 30.792786 C 12.075834 30.701536 11.285834 30.643619 10.417084 30.619453 C 9.347501 30.546536 8.226667 30.443203 7.054167 30.309453 C 5.887501 30.169869 4.800001 29.902369 3.791251 29.507369 C 2.782917 29.106536 1.965417 28.483619 1.339584 27.639036 C 0.72 26.788619 0.41 25.643202 0.41 24.203202 C 0.41 23.206952 0.589167 22.216535 0.947917 21.232369 C 1.3125 20.247785 1.880417 19.345702 2.652084 18.525285 C 3.42375 17.705285 4.444584 17.051952 5.714167 16.566118 C 6.984167 16.079868 8.527501 15.836952 10.344168 15.836952 C 11.140001 15.836952 11.923751 15.882368 12.695418 15.973618 C 13.467084 16.058618 14.199168 16.161952 14.892085 16.283618 L 14.892085 24.203202 C 14.448335 23.881119 13.901668 23.553202 13.251251 23.219035 C 12.607501 22.878619 11.799168 22.590285 10.827084 22.353202 C 9.855001 22.116119 8.661251 21.997785 7.245417 21.997785 C 6.370417 21.997785 5.477501 22.161952 4.565834 22.489869 C 3.660834 22.811952 2.910417 23.240285 2.315 23.774869 C 1.719584 24.309452 1.421667 24.911119 1.421667 25.579452 C 1.421667 26.229452 1.613334 26.654869 1.995834 26.855286 C 2.384584 27.049869 2.812917 27.146952 3.280834 27.146952 C 4.004167 27.146952 4.715001 27.098619 5.413751 27.001119 C 6.112501 26.904036 6.807917 26.855286 7.500834 26.855286 C 8.600417 26.855286 9.672918 26.955702 10.717918 27.156119 C 11.762918 27.350702 12.719584 27.696952 13.588751 28.195286 C 14.457501 28.693202 15.147085 29.404452 15.657501 30.327786 C 16.167918 31.245286 16.422918 32.439036 16.422918 33.909453 C 16.422918 35.452786 16.131251 36.716536 15.547918 37.700703 C 14.965001 38.679036 14.187085 39.444453 13.215001 39.99737 C 12.242918 40.544453 11.158334 40.92112 9.961251 41.127787 C 8.770418 41.340287 7.552084 41.446537 6.306667 41.446537 C 5.760001 41.446537 5.112917 41.42237 4.365417 41.37362 C 3.618334 41.32487 2.889167 41.26737 2.178334 41.200703 C 1.473334 41.13987 0.872084 41.072787 0.37375 40.99987 Z M 0.37375 40.99987 " stroke="#ffd900" stroke-width="1.399999" stroke-opacity="1" stroke-miterlimit="4"/></svg>